<svg id="Vrstva_1" data-name="Vrstva 1" xmlns="http://www.w3.org/2000/svg" xmlns:xlink="http://www.w3.org/1999/xlink" width="90" height="20.09" viewBox="0 0 90 20.09"><defs><style>.cls-1{fill:none;}.cls-2{clip-path:url(#clip-path);}.cls-3{fill:#555;}.cls-4{fill:#7b1fa2;}.cls-5{fill:#007ec6;}.cls-6{fill:#97ca00;}.cls-7{fill:#dfb317;}.cls-8{fill:#fe7d37;}.cls-9{fill:#e05d44;}.cls-10{fill:url(#Nepojmenovaný_přechod);}.cls-11,.cls-14{isolation:isolate;}.cls-12,.cls-14{font-size:11px;font-family:DejaVuSans, DejaVu Sans;}.cls-12{fill:#010101;}.cls-13{letter-spacing:0em;}.cls-14{fill:#fff;}</style><clipPath id="clip-path"><rect class="cls-1" width="90" height="20" rx="3"/></clipPath><linearGradient id="Nepojmenovaný_přechod" x1="-256.61" y1="387.75" x2="-256.61" y2="386.75" gradientTransform="matrix(90, 0, 0, -20, 23140, 7755)" gradientUnits="userSpaceOnUse"><stop offset="0" stop-color="#bbb" stop-opacity="0.1"/><stop offset="1" stop-opacity="0.1"/></linearGradient></defs><title>LGBT-friendly-rainbow</title><g class="cls-2"><path class="cls-3" d="M0,0H39V20H0Z"/><path class="cls-4" d="M39,16.7H90V20H39Z"/><path class="cls-5" d="M39,13.4H90v3.3H39Z"/><path class="cls-6" d="M39,10H90v3.4H39Z"/><path class="cls-7" d="M39,6.6H90V10H39Z"/><path class="cls-8" d="M39,3.3H90V6.6H39Z"/><path class="cls-9" d="M39,0H90V3.3H39Z"/><path class="cls-10" d="M0,0H90V20H0Z"/></g><g class="cls-11"><text class="cls-12" transform="translate(6.04 15)"><tspan class="cls-13">LGB</tspan><tspan x="22.28" y="0">T</tspan></text></g><text class="cls-14" transform="translate(6.04 14)"><tspan class="cls-13">LGB</tspan><tspan x="22.28" y="0">T</tspan></text><g class="cls-11"><text class="cls-12" transform="translate(42.63 15)">friendly</text></g><text class="cls-14" transform="translate(42.63 14)">friendly</text></svg>