<?xml version="1.0" standalone="no"?>
<!DOCTYPE svg PUBLIC "-//W3C//DTD SVG 20010904//EN"
 "http://www.w3.org/TR/2001/REC-SVG-20010904/DTD/svg10.dtd">
<svg version="1.0" xmlns="http://www.w3.org/2000/svg"
 width="700.000000pt" height="700.000000pt" viewBox="0 0 700.000000 700.000000"
 preserveAspectRatio="xMidYMid meet">
<metadata>
Created by potrace 1.11, written by Peter Selinger 2001-2013
</metadata>
<g transform="translate(0.000000,700.000000) scale(0.100000,-0.100000)"
fill="#000000" stroke="none">
<path d="M2523 6699 c-251 -42 -450 -256 -478 -516 -3 -29 -2 -54 2 -54 5 -1
678 -2 1498 -3 1123 -2 1502 -6 1539 -15 238 -58 415 -249 451 -486 3 -22 6
-903 6 -1958 l0 -1918 290 -144 c160 -80 291 -145 292 -145 5 0 -1 4748 -6
4769 -33 130 -83 225 -162 304 -55 55 -132 108 -192 131 -117 47 -74 46 -1678
45 -830 -1 -1533 -5 -1562 -10z"/>
<path d="M1421 5538 c-41 -3 -95 -12 -120 -19 -69 -18 -170 -73 -228 -124 -85
-75 -166 -214 -189 -327 -7 -32 -14 -4756 -7 -4770 2 -3 16 0 31 7 15 8 77 35
137 60 61 26 128 55 150 65 22 10 85 36 140 60 117 49 145 61 205 88 25 11 90
39 145 62 55 23 118 50 140 60 171 76 1082 463 1090 463 9 0 276 -111 370
-154 22 -10 200 -86 395 -169 195 -83 369 -157 385 -164 130 -59 876 -376 884
-376 6 0 8 864 7 2382 l-2 2383 -23 69 c-71 213 -262 373 -480 402 -66 9
-2933 11 -3030 2z"/>
</g>
</svg>
